#tb 0: 1/25
#media_type 0: video
#codec_id 0: rawvideo
#dimensions 0: 352x288
#sar 0: 0/1
0,          0,          0,        1,   102400, 0x877cb273
0,          1,          1,        1,   102400, 0xe970a89a
0,          2,          2,        1,   102400, 0xd8527cad
0,          3,          3,        1,   102400, 0xd4d06b6c
0,          4,          4,        1,   102400, 0x87ce0311
